<svg width="20" height="20" viewBox="0 0 20 20" fill="none" xmlns="http://www.w3.org/2000/svg">
<path d="M19.8053 8.04142H18.9998V7.99992H9.9999V11.9999H15.6513C14.8269 14.3284 12.6114 15.9998 9.9999 15.9998C6.68644 15.9998 3.99996 13.3134 3.99996 9.9999C3.99996 6.68644 6.68644 3.99996 9.9999 3.99996C11.5294 3.99996 12.9209 4.57696 13.9804 5.51945L16.8088 2.69097C15.0229 1.02649 12.6339 0 9.9999 0C4.47746 0 0 4.47746 0 9.9999C0 15.5223 4.47746 19.9998 9.9999 19.9998C15.5223 19.9998 19.9998 15.5223 19.9998 9.9999C19.9998 9.32941 19.9308 8.67492 19.8053 8.04142Z" fill="#FFC107"/>
<path d="M1.15234 5.34545L4.43781 7.75492C5.3268 5.55395 7.47978 3.99996 9.99926 3.99996C11.5287 3.99996 12.9202 4.57696 13.9797 5.51945L16.8082 2.69097C15.0222 1.02649 12.6332 0 9.99926 0C6.15829 0 2.82733 2.16848 1.15234 5.34545Z" fill="#FF3D00"/>
<path d="M10.0001 19.9998C12.583 19.9998 14.93 19.0113 16.7045 17.4038L13.6095 14.7848C12.5718 15.574 11.3038 16.0008 10.0001 15.9998C7.3991 15.9998 5.19062 14.3413 4.35862 12.0269L1.09766 14.5393C2.75264 17.7778 6.11361 19.9998 10.0001 19.9998Z" fill="#4CAF50"/>
<path d="M19.8054 8.0415H18.9999V8H10V12H15.6514C15.2571 13.1082 14.5466 14.0765 13.608 14.7854L13.6095 14.7844L16.7044 17.4034C16.4854 17.6024 19.9999 14.9999 19.9999 9.99998C19.9999 9.32949 19.9309 8.67499 19.8054 8.0415Z" fill="#1976D2"/>
</svg>
