<svg width="26" height="17" viewBox="0 0 26 17" fill="none" xmlns="http://www.w3.org/2000/svg">
<path d="M19.4833 6.2625V1.39167C19.4833 1.02257 19.3367 0.668598 19.0757 0.40761C18.8147 0.146622 18.4608 0 18.0917 0H1.39167C1.02257 0 0.668598 0.146622 0.40761 0.40761C0.146622 0.668598 0 1.02257 0 1.39167V15.3083C0 15.6774 0.146622 16.0314 0.40761 16.2924C0.668598 16.5534 1.02257 16.7 1.39167 16.7H18.0917C18.4608 16.7 18.8147 16.5534 19.0757 16.2924C19.3367 16.0314 19.4833 15.6774 19.4833 15.3083V10.4375L25.05 16.0042V0.695833L19.4833 6.2625Z" fill="#4D4C4A"/>
</svg>
